PathFileType	4	(X/Y/Z)	c:/Users/goper/Files/vsCode/490R/osim_files/C15/C15_SSWS_06.trc
DataRate	CameraRate	NumFrames	NumMarkers	Units                	OrigDataRate	OrigDataStartFrame	OrigNumFrames
250.00	250.00	10	36	mm	250.0	1001	2667
                Frame#	Time	LPSIS			LASIS			LTH1			LTH2			LTH3			LTH4			LLFE			LMFE			LSH1			LSH2			LSH3			LSH4			LLMAL			LMMAL			LCAL			LMTP5			LTOE			LMTP1			RPSIS			RASIS			RTH1			RTH2			RTH3			RTH4			RLFE			RMFE			RSH1			RSH2			RSH3			RSH4			RLMAL			RMMAL			RCAL			RMTP1			RTOE			RMTP5		
		X1	Y1	Z1	X2	Y2	Z2	X3	Y3	Z3	X4	Y4	Z4	X5	Y5	Z5	X6	Y6	Z6	X7	Y7	Z7	X8	Y8	Z8	X9	Y9	Z9	X10	Y10	Z10	X11	Y11	Z11	X12	Y12	Z12	X13	Y13	Z13	X14	Y14	Z14	X15	Y15	Z15	X16	Y16	Z16	X17	Y17	Z17	X18	Y18	Z18	X19	Y19	Z19	X20	Y20	Z20	X21	Y21	Z21	X22	Y22	Z22	X23	Y23	Z23	X24	Y24	Z24	X25	Y25	Z25	X26	Y26	Z26	X27	Y27	Z27	X28	Y28	Z28	X29	Y29	Z29	X30	Y30	Z30	X31	Y31	Z31	X32	Y32	Z32	X33	Y33	Z33	X34	Y34	Z34	X35	Y35	Z35	X36	Y36	Z36

1001	4.00000	914.47437	1004.73767	279.15305	745.62500	985.18616	334.69675	729.07684	599.19672	411.87735	713.32062	556.04968	396.31720	682.75177	622.02606	414.69821	668.42377	580.70422	405.67548	669.57562	494.63696	375.95322	651.37299	480.39871	254.77354	692.39667	373.14612	381.90405	678.16785	331.28729	387.98666	634.36804	390.58759	389.87488	627.59369	347.03070	395.67526	553.76013	90.24906	340.43729	534.47827	129.84668	256.06729	593.37299	47.31585	287.10635	422.33713	85.67446	370.38019	378.23883	141.74445	320.52292	397.87033	104.62292	256.69104	915.60669	1009.87158	157.76573	762.16168	982.50940	88.00497	866.19098	619.24591	48.18597	872.63031	574.88342	57.77446	807.57819	610.88037	63.92559	819.93970	564.86914	69.90823	881.76294	478.84372	87.66142	901.33453	469.35703	204.49524	989.60004	393.49832	72.53085	1000.12012	351.22617	71.63358	930.24963	370.77634	73.43092	950.63934	332.58206	70.30849	1049.43579	92.95834	143.67477	1016.80670	111.88573	230.48132	1115.74341	69.77174	190.51254	915.63147	34.93528	229.15817	881.73199	50.80404	175.18265	944.73340	28.52728	108.39407
1002	4.00400	910.37213	1004.10559	279.58139	741.39685	984.62634	334.81833	725.58966	598.45837	411.60706	708.20947	554.31293	395.55817	679.22083	621.15698	414.54242	664.96130	579.85406	405.49475	666.14209	493.81125	375.65372	647.91602	479.81192	254.27901	688.16760	372.16870	381.28433	673.77576	330.44196	387.33743	630.34387	389.93921	389.28647	623.18237	346.45135	395.05649	547.64447	90.22648	339.34418	528.84320	129.94649	255.06902	587.03210	46.93531	286.13245	416.09836	86.52263	368.95425	372.61664	143.03235	319.07047	392.17358	105.85145	255.32870	911.81561	1009.22510	158.19917	758.37964	981.89758	88.03358	863.41742	619.15021	48.30677	872.51691	575.80634	57.08791	804.62030	610.28308	63.84113	817.21820	564.52643	69.95940	878.94556	478.27301	87.85173	898.38666	468.87979	204.57378	987.60748	393.88196	72.58228	998.15955	351.42032	71.71696	928.15649	370.57626	73.55293	948.79895	332.48904	70.38998	1049.08777	93.38951	143.60957	1016.34515	112.22375	230.46205	1115.50378	70.40561	190.46246	915.60608	34.97368	229.11424	881.64532	50.77850	175.13336	944.75470	28.54639	108.35982
1003	4.00800	906.76569	1003.74811	279.88843	737.08405	984.11017	334.94086	721.96851	597.68909	411.25034	706.28900	554.51990	395.55011	675.68597	620.42206	414.31522	661.23834	578.88135	405.08817	662.51965	493.03854	375.27563	644.41797	479.27164	253.78424	683.99341	371.20490	380.59766	669.49005	329.64041	386.65372	626.22870	389.25775	388.66553	618.97699	345.82135	394.38269	542.05127	90.06868	338.29056	523.74542	130.03075	253.98032	581.26410	46.47263	285.18515	410.29391	87.21474	367.57867	367.39767	144.07365	317.58682	386.95883	106.85382	253.83510	907.94928	1008.54919	158.60532	754.59564	981.27002	88.13599	860.16528	618.36548	48.53287	866.79346	574.03278	58.09715	801.60504	609.70258	63.86410	814.15173	563.83051	69.84707	876.32312	477.98932	87.74712	895.44061	468.49731	204.68558	985.26117	393.96277	72.73917	996.15326	351.65558	71.82220	926.02441	370.39291	73.59996	946.89911	332.45114	70.42365	1048.68628	93.66891	144.13254	1015.86102	112.57056	230.12947	1115.23254	71.04620	190.40063	915.59576	35.10513	228.97958	881.64917	50.77174	175.09326	944.14136	27.54799	109.27559
1004	4.01200	902.10095	1002.84552	280.40869	733.07288	983.46210	334.98489	718.25580	597.00098	410.86865	702.60931	553.82507	395.14368	672.00073	619.71326	413.97940	657.60974	578.21722	404.62552	658.43542	492.04041	374.64453	640.80011	478.81888	253.35658	679.92249	370.39215	380.00613	665.17047	328.82538	385.93060	622.24420	388.67673	388.12183	614.76489	345.22000	393.71826	536.52557	89.45728	336.66980	518.89178	129.87654	252.92836	575.96912	45.97905	284.21246	405.00885	87.55161	366.09778	362.60886	144.75203	316.13098	382.06314	107.41321	252.41928	903.99994	1007.88177	159.04315	750.94440	980.76306	87.81355	857.16534	617.98773	48.67733	863.82202	573.60822	58.26495	798.51324	609.18555	63.87625	811.16815	563.26184	69.82219	873.28534	477.33682	88.06024	892.20856	467.93253	204.76277	982.93121	394.16516	72.83091	994.16730	351.95471	71.86886	923.77551	370.12317	73.73495	944.95312	332.43478	70.49182	1048.28687	94.38299	143.56476	1015.46173	112.95829	230.45555	1114.93799	71.75138	190.38512	915.57214	35.15455	228.94370	881.63086	50.75989	175.06401	944.70258	28.49932	108.35049
1005	4.01600	898.47247	1002.55090	280.71317	728.86536	982.97162	335.17764	714.44891	596.37195	410.59885	698.76678	553.16663	394.67670	668.13727	618.97357	413.70773	653.84357	577.53021	404.27768	655.10962	491.66504	374.61926	637.11224	478.38400	252.93364	675.81958	369.57242	379.35742	661.12085	328.11453	385.22723	618.20801	387.98706	387.50507	610.64954	344.58203	393.08740	532.11420	89.45004	336.14090	514.43585	129.59987	251.89214	571.13910	45.44078	283.20096	400.09882	87.60577	364.70242	358.06482	144.99355	314.63135	377.58347	107.69937	250.97728	900.03229	1007.25635	159.42932	747.18365	980.28137	87.94947	854.15155	617.81470	48.91351	860.74768	573.19177	58.42268	795.40686	608.53723	63.92685	808.07166	562.75452	69.86694	870.43292	476.95273	88.03030	889.15924	467.58282	204.90150	980.48785	394.32050	73.00229	991.86707	352.08862	72.05087	921.53271	369.97482	73.78549	942.90070	332.30463	70.59254	1047.88611	94.93488	143.55701	1015.08398	113.21741	230.50111	1114.67712	72.50813	190.29591	915.52655	35.16405	228.89487	881.60547	50.74625	174.98079	944.12854	27.56499	109.26504
1006	4.02000	893.74103	1001.67621	281.22177	724.64154	982.52087	335.24359	710.51733	595.79590	410.17233	694.92816	552.68103	394.32236	664.33868	618.19659	413.51874	649.85718	576.97290	403.83395	651.21326	491.06723	374.20593	633.26160	477.99057	252.49756	671.87744	368.89014	378.75403	656.99829	327.39716	384.53952	614.16180	387.27637	386.90784	606.66284	343.88077	392.44168	527.36395	88.49905	334.43051	510.40842	129.25137	250.73428	566.86243	44.86166	282.17310	395.66174	87.38351	363.24094	353.93256	144.92064	313.10635	373.48441	107.64690	249.55826	896.07440	1006.63824	159.85905	743.21814	979.51678	88.40066	851.27777	617.45856	48.80389	857.52606	572.70819	58.67589	792.12726	607.95410	63.98331	804.91797	562.16016	69.93700	867.36884	476.51276	88.13702	885.89886	467.10782	205.04195	977.90601	394.46707	73.15983	989.59790	352.36597	72.18026	919.13232	369.68460	73.91097	940.77429	332.21567	70.66219	1047.53662	95.58925	143.47220	1014.34760	113.65070	229.98897	1114.46411	73.37535	190.21228	915.49646	35.12994	228.87041	881.52557	50.72742	174.96613	944.65253	28.49812	108.31266
1007	4.02400	890.00604	1001.40784	281.54929	720.34668	981.86823	335.41544	706.44336	595.24200	409.89288	690.88953	552.17719	393.89093	660.18280	617.74951	412.98157	645.82892	576.31750	403.36780	647.23218	490.50293	373.85849	629.54065	478.16342	251.57222	667.86176	368.24487	378.12164	653.10516	326.76987	383.88809	610.16656	386.57349	386.37415	602.63312	343.17657	391.73206	523.55988	87.96474	333.40079	506.69540	128.65732	249.66930	563.00885	44.20280	281.11795	391.66559	86.81384	361.75189	350.13632	144.47221	311.60156	369.79648	107.20644	248.10909	892.01678	1006.02417	160.24553	739.39368	978.94293	88.15630	847.96588	617.02777	49.04089	853.37177	571.54218	59.49214	788.94818	607.43848	64.00264	801.71136	561.57861	69.99328	864.15808	475.96655	88.41277	882.47113	466.47723	205.14923	975.55005	395.00089	73.36967	987.39435	352.75037	72.29714	916.72717	369.52982	73.95832	938.57336	332.14975	70.81608	1047.09668	96.17648	143.45132	1013.67950	113.97577	229.92581	1114.10901	74.23920	190.18324	915.31897	35.15320	228.75996	881.46246	50.68916	174.93167	944.61829	28.50796	108.29652
1008	4.02800	885.25452	1000.64050	281.96039	715.93896	981.40186	335.55524	702.29114	594.74707	409.49344	686.76471	551.71033	393.48282	656.04211	617.11957	412.69373	641.67535	575.98578	402.99789	643.13141	489.95520	373.43863	625.34387	476.97659	251.62738	663.87976	367.61185	377.50433	649.11060	326.08032	383.09909	606.16644	385.88458	385.73376	598.63190	342.41663	391.09183	520.22906	87.46175	332.78064	503.30145	127.98460	248.56088	559.65515	43.50436	280.05432	388.02582	85.91462	360.34570	346.71710	143.66821	310.15701	366.49213	106.48251	246.72305	887.90643	1005.44574	160.65866	735.35980	978.30908	88.35995	844.26996	616.49158	49.64532	851.02161	571.79828	59.15168	785.45532	606.84229	64.24793	798.46954	560.99713	70.07820	861.01434	475.45248	88.62635	879.06604	466.01688	205.29800	972.63916	394.86053	73.52631	984.96924	352.97015	72.46606	914.27405	369.33768	74.07355	936.33435	332.02118	70.94370	1046.55518	96.64844	143.95103	1012.96277	114.33437	229.68576	1113.83765	75.22295	190.16425	915.19989	35.12961	228.67545	881.41309	50.69724	174.89848	944.64105	28.55374	108.31921
1009	4.03200	881.07806	1000.21796	282.30383	711.68866	980.79913	335.71164	697.99884	594.21381	409.17010	682.48553	551.27325	393.11911	651.80377	616.50061	412.34250	637.34039	575.48297	402.53754	638.91504	489.42691	373.00049	620.97528	476.51917	251.34181	660.00342	367.10577	376.92206	645.31635	325.43015	382.42035	602.15332	385.15598	385.14572	594.85327	341.64896	390.41885	517.21527	86.59491	331.67923	500.28253	127.14025	247.43715	556.74371	42.89669	278.94223	384.90298	84.72890	358.89017	343.55331	142.53839	308.69818	363.55658	105.46096	245.34895	883.88116	1004.91333	161.05177	731.38025	977.71722	88.88419	840.64990	615.70752	49.95714	850.17273	572.53925	58.67056	781.98187	606.22705	64.39472	794.79926	560.36487	70.47150	857.82721	475.04083	88.63931	875.62775	465.55273	205.48956	969.91766	395.11597	73.62675	982.48920	353.24750	72.64530	911.65594	369.08188	74.20793	934.07178	332.00793	71.05025	1046.06079	97.40997	143.92137	1012.58386	114.99953	229.84427	1113.43457	76.23477	190.11142	915.08643	35.14312	228.59717	881.66052	51.35781	174.68358	944.60284	28.56747	108.29876
1010	4.03600	876.77881	999.75208	282.69229	707.39581	980.29736	335.87424	693.54803	593.80200	408.90335	678.01605	550.79761	392.72412	647.43500	615.99652	412.00958	632.90558	574.99017	402.06528	634.70190	488.92944	372.60840	610.69910	478.37836	249.59424	656.01605	366.62680	376.34558	641.56848	324.88657	381.80469	598.39343	384.59592	385.16077	591.02069	340.88638	389.68701	514.54645	85.72017	330.55670	497.55322	126.18498	246.32683	554.55377	42.71976	277.91794	382.18317	83.29249	357.49554	340.82104	141.01385	307.24731	361.00140	104.00965	244.03381	879.71271	1004.33252	161.44409	727.32013	977.07104	89.05403	837.72479	615.62994	49.91500	846.71326	572.07550	58.95174	778.49915	605.62042	64.56714	791.34180	559.77423	70.62750	854.44635	474.48331	88.81091	872.02881	464.96881	205.65834	967.03497	395.28586	73.84577	979.95679	353.57068	72.75258	909.04663	368.84863	74.39748	931.68933	331.98135	71.17825	1045.61841	98.39719	143.35771	1011.96252	115.60854	230.16962	1113.07642	77.36157	190.03212	915.01099	35.15580	228.54041	881.66504	51.41016	174.67938	944.61591	28.62470	108.30800
